<svg xmlns="http://www.w3.org/2000/svg" viewBox="0 0 348 40">
<g fill="#19A0E6">
<path d="M18.5,34.9c-8,0-14.5-6.5-14.5-14.5S10.5,5.9,18.5,5.9S33,12.4,33,20.4C33,28.4,26.5,34.9,18.5,34.9z M17.4,9C10.8,9,5.3,14.4,5.3,21.1s5.4,12.1,12.1,12.1s12.1-5.4,12.1-12.1l0,0C29.5,14.4,24.1,9,17.4,9z"/>
<circle cx="27.6" cy="10.1" r="10.1"/>
<circle cx="7" cy="13.7" r="7"/>
<circle cx="7.9" cy="29.5" r="5.4"/>
<circle cx="25.6" cy="31.5" r="8.5"/>
</g>
<g fill="#333">
<path d="M67.5,5.3h-4.4v24.1H50.4V5.3h-4.5v28h21.8l0.6,5h3.2v-8.9h-4V5.3z"/>
<path d="M82.7,23.7l-1.7,2.5l0.3-2.3V5.3h-4.5v28h2.8L94,15.1l1.6-2.5l-0.2,2.3v18.5h4.4V5.3H97L82.7,23.7z"/>
<path d="M104.8,5.3v4h9.4v24.1h4.4V9.3h9.4V5.3H104.8z"/>
<circle cx="138" cy="20" r="5"/>
<path d="M169,8.4h-12.9v25h-3.3v-28h19.6v28H169V8.4z"/>
<path d="M176.9,23.4c0-3.4,0.8-6,2.3-7.8s3.7-2.7,6.5-2.7c1.5,0,2.8,0.2,3.9,0.7c1.1,0.5,2,1.2,2.7,2.1c0.7,0.9,1.3,2,1.6,3.3c0.3,1.3,0.5,2.7,0.5,4.3c0,3.4-0.8,6-2.3,7.8s-3.7,2.7-6.5,2.7c-1.5,0-2.8-0.2-3.9-0.7c-1.1-0.5-2-1.2-2.7-2.1s-1.3-2-1.6-3.3C177.1,26.4,176.9,25,176.9,23.4z M180.2,23.4c0,1,0.1,2,0.3,2.9c0.2,0.9,0.5,1.7,0.9,2.4s1,1.3,1.7,1.7c0.7,0.4,1.5,0.6,2.5,0.6c3.6,0,5.4-2.5,5.4-7.7c0-1-0.1-2-0.3-3c-0.2-0.9-0.5-1.7-0.9-2.4c-0.4-0.7-1-1.2-1.7-1.7c-0.7-0.4-1.5-0.6-2.5-0.6C182,15.7,180.2,18.2,180.2,23.4z"/>
<path d="M203.7,24.4h-1.8v9h-3.2v-20h3.2v9l1.7-0.6l6.4-8.5h3.5l-6.2,8l-1.7,1.3l2.1,1.6l6.7,9h-4L203.7,24.4z"/>
<path d="M218.2,14.9c1-0.6,2.2-1.1,3.5-1.4c1.3-0.3,2.8-0.4,4.2-0.4c1.4,0,2.5,0.2,3.3,0.6c0.8,0.4,1.5,0.9,1.9,1.5c0.4,0.6,0.7,1.3,0.9,2c0.1,0.7,0.2,1.4,0.2,2.2c0,1.6,0,3.2-0.1,4.7c-0.1,1.5-0.1,3-0.1,4.3c0,1,0,1.9,0.1,2.8s0.2,1.7,0.4,2.4h-2.4l-0.8-2.8h-0.2c-0.2,0.4-0.5,0.7-0.9,1.1c-0.4,0.4-0.8,0.7-1.3,1s-1.1,0.5-1.8,0.7c-0.7,0.2-1.4,0.3-2.3,0.3s-1.6-0.1-2.4-0.4s-1.4-0.6-1.9-1.1c-0.5-0.5-1-1.1-1.3-1.8S217,28.9,217,28c0-1.2,0.2-2.2,0.7-2.9c0.5-0.8,1.2-1.4,2-1.9s1.9-0.8,3.1-1c1.2-0.2,2.6-0.3,4-0.3c0.4,0,0.7,0,1.1,0s0.7,0,1.1,0.1c0.1-0.8,0.1-1.5,0.1-2.2c0-1.5-0.3-2.5-0.9-3.1c-0.6-0.6-1.7-0.9-3.2-0.9c-0.5,0-0.9,0-1.5,0.1c-0.5,0.1-1.1,0.2-1.6,0.3c-0.5,0.1-1.1,0.3-1.6,0.5c-0.5,0.2-0.9,0.4-1.3,0.6L218.2,14.9z M223.9,30.9c0.7,0,1.4-0.1,2-0.3c0.6-0.2,1.1-0.5,1.5-0.8s0.8-0.6,1.1-1c0.3-0.4,0.5-0.7,0.6-1.1v-3.3c-0.4,0-0.8,0-1.1-0.1s-0.8,0-1.1,0c-0.8,0-1.6,0-2.4,0.1c-0.8,0.1-1.5,0.3-2.1,0.5c-0.6,0.3-1.1,0.6-1.4,1c-0.4,0.4-0.5,1-0.5,1.7c0,0.9,0.3,1.7,1,2.3C222,30.6,222.9,30.9,223.9,30.9z"/>
<path d="M240.3,24.5v-2.6h2.8c0.5,0,1-0.1,1.4-0.2s0.9-0.4,1.3-0.7c0.4-0.3,0.7-0.6,0.9-1s0.3-0.8,0.3-1.2c0-1-0.4-1.8-1.1-2.2c-0.7-0.4-1.8-0.6-3.2-0.6c-1,0-2,0.2-2.9,0.5c-0.9,0.3-1.5,0.6-2,0.9l-0.9-2.4c0.8-0.5,1.7-0.9,2.8-1.2s2.4-0.5,3.9-0.5c4.4,0,6.6,1.6,6.6,4.9c0,0.9-0.3,1.8-0.9,2.7c-0.6,0.9-1.5,1.5-2.6,1.9v0.2c1.6,0.3,2.7,0.9,3.3,1.7c0.6,0.8,0.9,1.9,0.9,3.3c0,0.9-0.2,1.6-0.5,2.4c-0.3,0.7-0.9,1.3-1.6,1.9c-0.7,0.5-1.6,1-2.6,1.3c-1.1,0.3-2.3,0.5-3.7,0.5c-1.4,0-2.5-0.1-3.4-0.4c-0.9-0.2-1.7-0.5-2.4-0.9l0.9-2.6c0.6,0.3,1.4,0.6,2.2,0.8c0.9,0.2,1.8,0.3,2.8,0.3c1.6,0,2.9-0.3,3.7-0.8c0.9-0.6,1.3-1.4,1.3-2.6c0-1-0.4-1.7-1.2-2.3s-2.1-0.8-4-0.8H240.3z"/>
<path d="M256.5,14.9c1-0.6,2.2-1.1,3.5-1.4c1.3-0.3,2.8-0.4,4.2-0.4c1.4,0,2.5,0.2,3.3,0.6c0.8,0.4,1.5,0.9,1.9,1.5c0.4,0.6,0.7,1.3,0.9,2c0.1,0.7,0.2,1.4,0.2,2.2c0,1.6,0,3.2-0.1,4.7c-0.1,1.5-0.1,3-0.1,4.3c0,1,0,1.9,0.1,2.8s0.2,1.7,0.4,2.4h-2.4l-0.8-2.8h-0.2c-0.2,0.4-0.5,0.7-0.9,1.1c-0.4,0.4-0.8,0.7-1.3,1s-1.1,0.5-1.8,0.7c-0.7,0.2-1.4,0.3-2.3,0.3s-1.6-0.1-2.4-0.4s-1.4-0.6-1.9-1.1c-0.5-0.5-1-1.1-1.3-1.8s-0.5-1.5-0.5-2.4c0-1.2,0.2-2.2,0.7-2.9c0.5-0.8,1.2-1.4,2-1.9s1.9-0.8,3.1-1c1.2-0.2,2.6-0.3,4-0.3c0.4,0,0.7,0,1.1,0s0.7,0,1.1,0.1c0.1-0.8,0.1-1.5,0.1-2.2c0-1.5-0.3-2.5-0.9-3.1c-0.6-0.6-1.7-0.9-3.2-0.9c-0.5,0-0.9,0-1.5,0.1c-0.5,0.1-1.1,0.2-1.6,0.3c-0.5,0.1-1.1,0.3-1.6,0.5c-0.5,0.2-0.9,0.4-1.3,0.6L256.5,14.9z M262.2,30.9c0.7,0,1.4-0.1,2-0.3c0.6-0.2,1.1-0.5,1.5-0.8s0.8-0.6,1.1-1c0.3-0.4,0.5-0.7,0.6-1.1v-3.3c-0.4,0-0.8,0-1.1-0.1s-0.8,0-1.1,0c-0.8,0-1.6,0-2.4,0.1c-0.8,0.1-1.5,0.3-2.1,0.5c-0.6,0.3-1.1,0.6-1.4,1c-0.4,0.4-0.5,1-0.5,1.7c0,0.9,0.3,1.7,1,2.3C260.3,30.6,261.2,30.9,262.2,30.9z"/>
<path d="M289.4,16.2h-6.3v17.2H280V16.2h-6.3v-2.8h15.8V16.2z"/>
<path d="M307.4,31.8c-0.8,0.6-1.8,1.1-3,1.5c-1.2,0.4-2.5,0.6-3.9,0.6c-1.5,0-2.8-0.2-4-0.7s-2-1.2-2.8-2.1s-1.3-2-1.6-3.3c-0.3-1.3-0.5-2.7-0.5-4.3c0-3.4,0.8-6,2.3-7.8c1.5-1.8,3.7-2.7,6.5-2.7c0.9,0,1.8,0.1,2.7,0.3c0.9,0.2,1.7,0.6,2.4,1.1s1.3,1.4,1.8,2.4c0.5,1,0.7,2.4,0.7,4.1c0,0.9-0.1,1.9-0.2,2.9H295c0,1.2,0.1,2.2,0.4,3.1c0.2,0.9,0.6,1.7,1.1,2.3s1.2,1.1,2,1.4c0.8,0.3,1.8,0.5,3,0.5c0.9,0,1.8-0.2,2.7-0.5c0.9-0.3,1.6-0.7,2-1.1L307.4,31.8z M300.5,15.7c-1.6,0-2.8,0.4-3.8,1.2c-0.9,0.8-1.5,2.2-1.7,4.2h9.9c0-2-0.4-3.4-1.2-4.3S301.9,15.7,300.5,15.7z"/>
<path d="M323.8,16.2H318c-0.1,1.1-0.2,2.3-0.2,3.6c-0.1,1.3-0.2,2.6-0.4,3.9c-0.2,1.3-0.4,2.5-0.6,3.7c-0.3,1.2-0.6,2.2-1,3.1c-0.4,0.9-0.9,1.6-1.5,2.2c-0.6,0.5-1.3,0.8-2.1,0.8c-0.5,0-0.9,0-1.3-0.1c-0.4-0.1-0.7-0.1-1-0.3l0.5-2.7c0.3,0.1,0.7,0.2,1,0.2c0.5,0,1-0.2,1.4-0.7c0.4-0.5,0.8-1.3,1.1-2.6c0.3-1.3,0.6-3,0.8-5.3s0.4-5.2,0.4-8.8H327v20h-3.2V16.2z"/>
<path d="M344.8,21.6l0.1-2.5h-0.1l-1.6,2.6l-9,11.8h-1.8v-20h3.2v12.2l-0.1,2.4h0.2l1.6-2.5l9-12.1h1.9v20h-3.2V21.6z"/>
</g>
</svg>