<?xml version="1.0" encoding="utf-8"?>
<!-- Generator: Adobe Illustrator 23.0.3, SVG Export Plug-In . SVG Version: 6.00 Build 0)  -->
<svg version="1.1" id="Слой_1" xmlns="http://www.w3.org/2000/svg" xmlns:xlink="http://www.w3.org/1999/xlink" x="0px" y="0px"
	 viewBox="0 0 28 28" style="enable-background:new 0 0 28 28;" xml:space="preserve">
<style type="text/css">
	.st0{fill:#666666;}
</style>
<path class="st0" d="M24,16v-4h-3.3c-0.1-0.5-0.3-0.9-0.5-1.3l2.3-2.3l-2.8-2.8l-2.3,2.3c-0.4-0.2-0.9-0.4-1.3-0.5V4h-4v3.3
	c-0.5,0.1-0.9,0.3-1.3,0.5L8.3,5.5L5.5,8.3l2.3,2.3c-0.2,0.4-0.4,0.9-0.5,1.3H4v4h3.3c0.1,0.5,0.3,0.9,0.5,1.3l-2.3,2.3l2.8,2.8
	l2.3-2.3c0.4,0.2,0.9,0.4,1.3,0.5V24h4v-3.3c0.5-0.1,0.9-0.3,1.3-0.5l2.3,2.3l2.8-2.8l-2.3-2.3c0.2-0.4,0.4-0.9,0.5-1.3H24z M14,17
	c-1.7,0-3-1.3-3-3s1.3-3,3-3s3,1.3,3,3S15.7,17,14,17z"/>
</svg>
