<svg xmlns="http://www.w3.org/2000/svg" viewBox="0 0 28 28"><path fill="none" stroke="%23CCC" d="M8.5,0.5h11c4.4,0,8,3.6,8,8v11c0,4.4-3.6,8-8,8h-11c-4.4,0-8-3.6-8-8v-11C0.5,4.1,4.1,0.5,8.5,0.5z"/><g fill="%2319A0E6"><path d="M7,7h5c0.6,0,1,0.4,1,1v4c0,0.6-0.4,1-1,1H7c-0.6,0-1-0.4-1-1V8C6,7.4,6.4,7,7,7z"/><path d="M7,15h5c0.6,0,1,0.4,1,1v4c0,0.6-0.4,1-1,1H7c-0.6,0-1-0.4-1-1v-4C6,15.4,6.4,15,7,15z"/><path d="M16,7h5c0.6,0,1,0.4,1,1v4c0,0.6-0.4,1-1,1h-5c-0.6,0-1-0.4-1-1V8C15,7.4,15.4,7,16,7z"/><path d="M16,15h5c0.6,0,1,0.4,1,1v4c0,0.6-0.4,1-1,1h-5c-0.6,0-1-0.4-1-1v-4C15,15.4,15.4,15,16,15z"/></g></svg>