<svg xmlns="http://www.w3.org/2000/svg" viewBox="0 0 1384 360">
<g>
<path fill="#2AE" d="M211.3,39H53.9C46.2,39,40,45.2,40,52.9v196.4c0,12.3,10,22.3,22.3,22.3h48.1v44.6c0,2.6,3.1,3.8,4.8,1.9l39-46.4H203c12.3,0,22.3-10,22.3-22.3V52.9C225.3,45.2,219,39,211.3,39z"/>
<path fill="#FFF" d="M141.4,114.9l39.8,0.6c-10.5-3.7-18.7-11.4-26.1-21.1h-13.7c0-4.1-3.3-7.5-7.5-7.5c-4.1,0-7.5,3.3-7.5,7.5H92.9v20.5h33.6c0,0,0,41.9,0,55.3c0,17.4-8.1,29.9-8.1,40.4c0,8.6,7,15.5,15.5,15.5s15.5-7,15.5-15.5c0-10.6-8.1-23-8.1-40.4C141.4,156.1,141.4,114.9,141.4,114.9z"/>
</g>
<g fill="#145">
<path d="M262.9,64.5h8.8l11.8,26h0.1l11.8-26h8.5v44.2H298V71.5h-0.1l-11.3,24.9h-6.3l-11.3-24.9h-0.1v37.3h-5.9V64.5z"/>
<path d="M313.4,77.2h5.7v24.6h0.1L333,77.2h7.6v31.6h-5.7V84.1h-0.1L321,108.7h-7.6V77.2z"/>
<path d="M349.9,77.2h5.7V90h15.8V77.2h5.7v31.6h-5.7V95.2h-15.8v13.5h-5.7V77.2z"/>
<path d="M386.4,77.2h5.7v24.6h0.1L406,77.2h7.6v31.6h-5.7V84.1h-0.1L394,108.7h-7.6V77.2z"/>
<path d="M435.3,109.2c-4.3,0-7.6-1.3-10.1-4c-2.5-2.7-3.8-6.6-3.8-11.7v-1.8c0-2.4,0.3-4.5,1-6.4c0.7-1.9,1.6-3.4,2.8-4.7c1.2-1.3,2.7-2.3,4.4-3c1.7-0.7,3.6-1,5.7-1c2,0,3.7,0.3,5.3,0.8c1.5,0.5,2.9,1.2,3.9,2.1c1.1,0.9,2,1.9,2.7,3.2c0.7,1.2,1.1,2.5,1.4,3.9h-5.9c-0.5-1.3-1.3-2.5-2.4-3.4c-1.1-0.9-2.7-1.4-4.6-1.4c-2.5,0-4.5,0.8-6,2.4c-1.5,1.6-2.2,4.1-2.2,7.5v1.8c0,3.7,0.7,6.3,2.2,8c1.5,1.7,3.5,2.5,6,2.5c2,0,3.5-0.5,4.6-1.5c1.1-1,1.9-2.3,2.4-3.9h5.9c-0.3,1.6-0.7,3-1.4,4.3c-0.7,1.3-1.6,2.4-2.7,3.3c-1.1,0.9-2.4,1.7-3.9,2.2C439,109,437.3,109.2,435.3,109.2z"/>
<path d="M463.2,82.3h-10.1v-5.2H479v5.2h-10.1v26.4h-5.7V82.3z"/>
<path d="M498,109.2c-2.2,0-4.2-0.3-6-1c-1.8-0.7-3.3-1.7-4.6-3c-1.3-1.3-2.2-2.9-2.9-4.8c-0.7-1.9-1-4.1-1-6.5v-1.8c0-2.4,0.3-4.6,1-6.5c0.7-1.9,1.6-3.5,2.9-4.8c1.2-1.3,2.7-2.3,4.5-3c1.7-0.7,3.7-1,5.8-1c2.1,0,4.1,0.3,5.8,1c1.7,0.7,3.2,1.7,4.5,3.1c1.2,1.4,2.2,3,2.9,4.9c0.7,1.9,1,4.2,1,6.7v2.3h-22.5c0.1,3,0.9,5.3,2.3,6.9c1.5,1.6,3.4,2.4,6,2.4c2,0,3.7-0.4,5-1.1c1.3-0.8,2.3-2,3-3.6h5.9c-0.8,3.3-2.3,5.8-4.6,7.4S501.7,109.2,498,109.2z M497.7,81.8c-2.4,0-4.3,0.7-5.7,2.1s-2.2,3.4-2.5,6.1H506C505.5,84.5,502.7,81.8,497.7,81.8z"/>
<path d="M519.6,77.2h4.4l0.6,4.4h0.1c1.5-1.8,3-3,4.6-3.8c1.6-0.8,3.6-1.1,5.8-1.1c1.9,0,3.6,0.3,5.2,1c1.6,0.7,2.9,1.6,4,2.9c1.1,1.3,2,2.9,2.6,4.8c0.6,1.9,0.9,4.2,0.9,6.7v1.8c0,2.5-0.3,4.7-0.9,6.7c-0.6,1.9-1.5,3.5-2.7,4.8c-1.1,1.3-2.5,2.3-4,2.9c-1.6,0.7-3.3,1-5.1,1c-2.1,0-4-0.3-5.5-1c-1.5-0.7-3-1.8-4.3-3.3h-0.1v16.4h-5.7V77.2z M533.7,104.1c2.6,0,4.6-0.8,6.1-2.5c1.5-1.7,2.3-4.2,2.3-7.7v-1.8c0-3.4-0.8-6-2.3-7.7c-1.5-1.7-3.6-2.6-6.1-2.6c-2.6,0-4.6,0.8-6.1,2.5c-1.5,1.7-2.3,4.2-2.3,7.7v1.8c0,3.4,0.8,6,2.3,7.7C529.1,103.2,531.1,104.1,533.7,104.1z"/>
<path d="M568.3,109.2c-4.3,0-7.6-1.3-10.1-4c-2.5-2.7-3.8-6.6-3.8-11.7v-1.8c0-2.4,0.3-4.5,1-6.4c0.7-1.9,1.6-3.4,2.8-4.7c1.2-1.3,2.7-2.3,4.4-3c1.7-0.7,3.6-1,5.7-1c2,0,3.7,0.3,5.3,0.8c1.5,0.5,2.9,1.2,3.9,2.1c1.1,0.9,2,1.9,2.7,3.2c0.7,1.2,1.1,2.5,1.4,3.9h-5.9c-0.5-1.3-1.3-2.5-2.4-3.4c-1.1-0.9-2.7-1.4-4.6-1.4c-2.5,0-4.5,0.8-6,2.4c-1.5,1.6-2.2,4.1-2.2,7.5v1.8c0,3.7,0.7,6.3,2.2,8c1.5,1.7,3.5,2.5,6,2.5c2,0,3.5-0.5,4.6-1.5c1.1-1,1.9-2.3,2.4-3.9h5.9c-0.3,1.6-0.7,3-1.4,4.3c-0.7,1.3-1.6,2.4-2.7,3.3c-1.1,0.9-2.4,1.7-3.9,2.2C572.1,109,570.3,109.2,568.3,109.2z"/>
<path d="M596.3,82.3h-10.1v-5.2h25.9v5.2H602v26.4h-5.7V82.3z"/>
<path d="M618.4,77.2h12.3c4.1,0,7.1,0.8,8.9,2.4c1.8,1.6,2.7,3.7,2.7,6.4c0,1.3-0.3,2.6-1,3.6c-0.7,1.1-1.6,2-2.9,2.7v0.1c1.6,0.7,2.9,1.6,3.8,2.9c0.9,1.2,1.4,2.7,1.4,4.3c0,2.9-0.9,5.1-2.7,6.7c-1.8,1.6-4.8,2.4-8.9,2.4h-13.6V77.2z M636.5,86.2c0-1.2-0.4-2.2-1.3-2.9c-0.9-0.7-2.5-1-4.8-1h-6.3v7.9h6.3c2.3,0,3.9-0.3,4.8-1C636.1,88.5,636.5,87.5,636.5,86.2z M637.8,99.2c0-1.4-0.4-2.4-1.3-3.1c-0.9-0.7-2.5-1.1-4.7-1.1h-7.6v8.6h7.6c2.3,0,3.9-0.4,4.7-1.1C637.3,101.7,637.8,100.6,637.8,99.2z"/>
<path d="M664.5,109.2c-4.5,0-8.1-1.3-10.6-4c-2.6-2.7-3.9-6.5-3.9-11.4v-1.8c0-4.9,1.3-8.7,3.9-11.4c2.6-2.7,6.1-4,10.6-4c4.5,0,8.1,1.3,10.6,4c2.6,2.7,3.9,6.5,3.9,11.4v1.8c0,4.9-1.3,8.7-3.9,11.4C672.5,107.9,669,109.2,664.5,109.2z M664.5,104.1c2.7,0,4.7-0.8,6.3-2.5c1.5-1.7,2.3-4.2,2.3-7.7v-1.8c0-3.5-0.8-6-2.3-7.7c-1.5-1.7-3.6-2.5-6.3-2.5s-4.7,0.8-6.3,2.5c-1.5,1.7-2.3,4.2-2.3,7.7v1.8c0,3.5,0.8,6,2.3,7.7C659.8,103.2,661.9,104.1,664.5,104.1z"/>
<path d="M704.9,77.2h25.9v31.6h-5.7V82.3h-14.5v26.4h-5.7V77.2z"/>
<path d="M753.2,109.2c-4.5,0-8.1-1.3-10.6-4c-2.6-2.7-3.9-6.5-3.9-11.4v-1.8c0-4.9,1.3-8.7,3.9-11.4c2.6-2.7,6.1-4,10.6-4c4.5,0,8.1,1.3,10.6,4c2.6,2.7,3.9,6.5,3.9,11.4v1.8c0,4.9-1.3,8.7-3.9,11.4C761.2,107.9,757.6,109.2,753.2,109.2z M753.2,104.1c2.7,0,4.7-0.8,6.3-2.5c1.5-1.7,2.3-4.2,2.3-7.7v-1.8c0-3.5-0.8-6-2.3-7.7c-1.5-1.7-3.6-2.5-6.3-2.5s-4.7,0.8-6.3,2.5c-1.5,1.7-2.3,4.2-2.3,7.7v1.8c0,3.5,0.8,6,2.3,7.7C748.4,103.2,750.5,104.1,753.2,104.1z"/>
<path d="M793.6,77.2h5.7v24.6h0.1l13.8-24.6h7.6v31.6h-5.7V84.1H815l-13.8,24.6h-7.6V77.2z"/>
<path d="M830.1,77.2h5.7V90h15.8V77.2h5.7v31.6h-5.7V95.2h-15.8v13.5h-5.7V77.2z"/>
<path d="M881.5,109.2h-2.2c-2.1,0-4.1-0.3-5.8-1c-1.7-0.7-3.2-1.7-4.5-3c-1.2-1.3-2.2-2.9-2.9-4.8c-0.7-1.9-1-4.1-1-6.5v-1.8c0-2.4,0.3-4.5,1-6.4c0.7-1.9,1.7-3.5,2.9-4.8c1.2-1.3,2.7-2.3,4.5-3.1c1.7-0.7,3.7-1.1,5.8-1.1h2.2V64.5h5.7v12.1h2.2c2.1,0,4.1,0.3,5.8,1c1.7,0.7,3.2,1.7,4.5,3c1.2,1.3,2.2,2.9,2.9,4.8c0.7,1.9,1,4.1,1,6.5v1.8c0,2.4-0.3,4.6-1,6.5c-0.7,1.9-1.7,3.5-2.9,4.9c-1.2,1.3-2.7,2.3-4.5,3c-1.7,0.7-3.7,1-5.8,1h-2.2v12.1h-5.7V109.2z M871,93.8c0,3.4,0.8,6,2.3,7.7c1.5,1.7,3.5,2.6,6,2.6h2.2V81.8h-2.2c-2.5,0-4.5,0.8-6,2.5c-1.5,1.7-2.2,4.2-2.2,7.7V93.8z M897.7,92.1c0-3.4-0.8-6-2.3-7.7c-1.5-1.7-3.5-2.6-6-2.6h-2.2v22.2h2.2c2.5,0,4.5-0.8,6-2.5c1.5-1.7,2.2-4.2,2.2-7.7V92.1z"/>
<path d="M924.6,109.2c-4.5,0-8.1-1.3-10.6-4c-2.6-2.7-3.9-6.5-3.9-11.4v-1.8c0-4.9,1.3-8.7,3.9-11.4c2.6-2.7,6.1-4,10.6-4c4.5,0,8.1,1.3,10.6,4c2.6,2.7,3.9,6.5,3.9,11.4v1.8c0,4.9-1.3,8.7-3.9,11.4C932.6,107.9,929,109.2,924.6,109.2z M924.6,104.1c2.7,0,4.7-0.8,6.3-2.5c1.5-1.7,2.3-4.2,2.3-7.7v-1.8c0-3.5-0.8-6-2.3-7.7c-1.5-1.7-3.6-2.5-6.3-2.5s-4.7,0.8-6.3,2.5c-1.5,1.7-2.3,4.2-2.3,7.7v1.8c0,3.5,0.8,6,2.3,7.7C919.8,103.2,921.9,104.1,924.6,104.1z"/>
<path d="M946.9,77.2h4.4l0.6,4.4h0.1c1.5-1.8,3-3,4.6-3.8c1.6-0.8,3.6-1.1,5.8-1.1c1.9,0,3.6,0.3,5.2,1c1.6,0.7,2.9,1.6,4,2.9c1.1,1.3,2,2.9,2.6,4.8c0.6,1.9,0.9,4.2,0.9,6.7v1.8c0,2.5-0.3,4.7-0.9,6.7c-0.6,1.9-1.5,3.5-2.7,4.8c-1.1,1.3-2.5,2.3-4,2.9c-1.6,0.7-3.3,1-5.1,1c-2.1,0-4-0.3-5.5-1c-1.5-0.7-3-1.8-4.3-3.3h-0.1v16.4h-5.7V77.2z M961,104.1c2.6,0,4.6-0.8,6.1-2.5c1.5-1.7,2.3-4.2,2.3-7.7v-1.8c0-3.4-0.8-6-2.3-7.7c-1.5-1.7-3.6-2.6-6.1-2.6c-2.6,0-4.6,0.8-6.1,2.5c-1.5,1.7-2.3,4.2-2.3,7.7v1.8c0,3.4,0.8,6,2.3,7.7C956.4,103.2,958.5,104.1,961,104.1z"/>
<path d="M983.2,77.2h8.5l8.4,18h0.1l8.4-18h8.1v31.6h-5.7V84.1h-0.1l-8.1,17.4h-5.7L989,84.1h-0.1v24.6h-5.7V77.2z"/>
<path d="M1034.8,109.2c-3.6,0-6.3-0.8-8.1-2.5c-1.8-1.7-2.7-4-2.7-6.9c0-3.2,1.1-5.7,3.2-7.5c2.1-1.8,5.6-2.7,10.4-2.7h7.3v-1.7c0-2.1-0.5-3.6-1.6-4.6c-1.1-1-2.9-1.5-5.3-1.5c-2.3,0-3.9,0.4-5,1.2c-1.1,0.8-1.7,1.8-1.8,3h-5.8c0.1-1.3,0.4-2.5,1-3.7s1.4-2.1,2.4-3c1.1-0.8,2.3-1.5,3.9-2c1.5-0.5,3.3-0.7,5.3-0.7c4.3,0,7.5,1,9.6,2.9c2,1.9,3.1,4.8,3.1,8.7v20.5h-4.4l-0.7-4.7h-0.1C1042.8,107.5,1039.3,109.2,1034.8,109.2z M1035.5,104.1c1.3,0,2.5-0.2,3.7-0.7c1.2-0.4,2.2-1.1,3-1.8c0.9-0.8,1.5-1.7,2-2.7c0.5-1,0.7-2.2,0.7-3.3v-1.1h-6.9c-2.9,0-5,0.5-6.2,1.5c-1.2,1-1.8,2.3-1.8,3.9c0,1.3,0.5,2.3,1.4,3.1C1032.3,103.7,1033.7,104.1,1035.5,104.1z"/>
<path d="M1066.6,82.3h-10.1v-5.2h25.9v5.2h-10.1v26.4h-5.7V82.3z"/>
<path d="M1088.8,77.2h5.7v24.6h0.1l13.8-24.6h7.6v31.6h-5.7V84.1h-0.1l-13.8,24.6h-7.6V77.2z"/>
<path d="M1136.1,109.2c-4.4,0-7.6-0.9-9.7-2.8c-2.1-1.9-3.3-4.5-3.6-7.8h5.9c0.3,1.8,1,3.1,2.1,4c1.1,0.9,2.8,1.4,5.2,1.4c2.5,0,4.2-0.4,5.2-1.2c1-0.8,1.5-1.9,1.5-3.2c0-1.3-0.5-2.4-1.5-3.2c-1-0.8-2.7-1.2-5.2-1.2h-3.5V90h3.5c2.1,0,3.5-0.4,4.4-1.1c0.9-0.8,1.3-1.7,1.3-3c0-1.2-0.4-2.2-1.3-3c-0.9-0.8-2.4-1.1-4.4-1.1c-2.1,0-3.6,0.4-4.5,1.2c-0.9,0.8-1.6,2-1.9,3.6h-5.9c0.3-3.1,1.5-5.6,3.4-7.3c2-1.8,4.9-2.7,8.9-2.7c4,0,6.9,0.8,8.8,2.5c1.9,1.7,2.9,3.9,2.9,6.5c0,3.2-1.3,5.4-4,6.7v0.1c3.3,1.3,5,3.8,5,7.4c0,2.7-1,5-3.1,6.7C1143.6,108.4,1140.4,109.2,1136.1,109.2z"/>
<path d="M1165.7,109.2c-3.6,0-6.3-0.8-8.1-2.5c-1.8-1.7-2.7-4-2.7-6.9c0-3.2,1.1-5.7,3.2-7.5c2.1-1.8,5.6-2.7,10.4-2.7h7.3v-1.7c0-2.1-0.5-3.6-1.6-4.6c-1.1-1-2.9-1.5-5.3-1.5c-2.3,0-3.9,0.4-5,1.2c-1.1,0.8-1.7,1.8-1.8,3h-5.8c0.1-1.3,0.4-2.5,1-3.7s1.4-2.1,2.4-3c1.1-0.8,2.3-1.5,3.9-2c1.5-0.5,3.3-0.7,5.3-0.7c4.3,0,7.5,1,9.6,2.9c2,1.9,3.1,4.8,3.1,8.7v20.5h-4.4l-0.7-4.7h-0.1C1173.7,107.5,1170.2,109.2,1165.7,109.2z M1166.3,104.1c1.3,0,2.5-0.2,3.7-0.7c1.2-0.4,2.2-1.1,3-1.8c0.9-0.8,1.5-1.7,2-2.7c0.5-1,0.7-2.2,0.7-3.3v-1.1h-6.9c-2.9,0-5,0.5-6.2,1.5c-1.2,1-1.8,2.3-1.8,3.9c0,1.3,0.5,2.3,1.4,3.1C1163.2,103.7,1164.5,104.1,1166.3,104.1z"/>
<path d="M1215,108.7h-24.3V77.2h5.7v26.4h14.2V77.2h5.7v26.4h4.4v13.4h-5.7V108.7z"/>
<path d="M1227.2,77.2h5.7v24.6h0.1l13.8-24.6h7.6v31.6h-5.7V84.1h-0.1l-13.8,24.6h-7.6V77.2z"/>
<path d="M1263.7,77.2h5.7v24.6h0.1l13.8-24.6h7.6v31.6h-5.7V84.1h-0.1l-13.8,24.6h-7.6V77.2z"/>
<path d="M1301.4,102.1h6.6l-4.4,16.1h-5.1L1301.4,102.1z"/>
<path d="M274.5,184.7c-4.3,0-7.6-1.3-10.1-4c-2.5-2.7-3.8-6.6-3.8-11.7v-1.8c0-2.4,0.3-4.5,1-6.4c0.7-1.9,1.6-3.4,2.8-4.7c1.2-1.3,2.7-2.3,4.4-3c1.7-0.7,3.6-1,5.7-1c2,0,3.7,0.3,5.3,0.8c1.5,0.5,2.9,1.2,3.9,2.1c1.1,0.9,2,1.9,2.7,3.2c0.7,1.2,1.1,2.5,1.4,3.9h-5.9c-0.5-1.3-1.3-2.5-2.4-3.4c-1.1-0.9-2.7-1.4-4.6-1.4c-2.5,0-4.5,0.8-6,2.4c-1.5,1.6-2.2,4.1-2.2,7.5v1.8c0,3.7,0.7,6.3,2.2,8c1.5,1.7,3.5,2.5,6,2.5c2,0,3.5-0.5,4.6-1.5c1.1-1,1.9-2.3,2.4-3.9h5.9c-0.3,1.6-0.7,3-1.4,4.3c-0.7,1.3-1.6,2.4-2.7,3.3c-1.1,0.9-2.4,1.7-3.9,2.2C278.3,184.4,276.5,184.7,274.5,184.7z"/>
<path d="M294.8,152.6h12.3c4.1,0,7.1,0.8,8.9,2.4c1.8,1.6,2.7,3.7,2.7,6.4c0,1.3-0.3,2.6-1,3.6c-0.7,1.1-1.6,2-2.9,2.7v0.1c1.6,0.7,2.9,1.6,3.8,2.9c0.9,1.2,1.4,2.7,1.4,4.3c0,2.9-0.9,5.1-2.7,6.7c-1.8,1.6-4.8,2.4-8.9,2.4h-13.6V152.6z M312.8,161.7c0-1.2-0.4-2.2-1.3-2.9c-0.9-0.7-2.5-1-4.8-1h-6.3v7.9h6.3c2.3,0,3.9-0.3,4.8-1C312.4,163.9,312.8,162.9,312.8,161.7z M314.1,174.6c0-1.4-0.4-2.4-1.3-3.1c-0.9-0.7-2.5-1.1-4.7-1.1h-7.6v8.6h7.6c2.3,0,3.9-0.4,4.7-1.1C313.7,177.1,314.1,176,314.1,174.6z"/>
<path d="M331.8,172c-2-0.8-3.5-2-4.4-3.5c-0.9-1.5-1.4-3.4-1.4-5.6c0-3.3,1-5.8,3.1-7.6c2.1-1.8,5.5-2.7,10.2-2.7H350v31.6h-5.7v-11h-5.1c-0.3,0-0.7,0-1,0c-0.3,0-0.7,0-1-0.1l-6.2,11.1h-6.3L331.8,172z M332,162.9c0,1.6,0.5,2.9,1.6,3.8c1.1,0.9,3.1,1.3,6,1.3h4.7v-10.2h-4.7c-2.9,0-5,0.4-6,1.3C332.5,159.9,332,161.2,332,162.9z"/>
<path d="M370.1,184.7c-4.4,0-7.6-0.9-9.7-2.8c-2.1-1.9-3.3-4.5-3.6-7.8h5.9c0.3,1.8,1,3.1,2.1,4c1.1,0.9,2.8,1.4,5.2,1.4c2.5,0,4.2-0.4,5.2-1.2c1-0.8,1.5-1.9,1.5-3.2c0-1.3-0.5-2.4-1.5-3.2c-1-0.8-2.7-1.2-5.2-1.2h-3.5v-5.2h3.5c2.1,0,3.5-0.4,4.4-1.1c0.9-0.8,1.3-1.7,1.3-3c0-1.2-0.4-2.2-1.3-3c-0.9-0.8-2.4-1.1-4.4-1.1c-2.1,0-3.6,0.4-4.5,1.2c-0.9,0.8-1.6,2-1.9,3.6h-5.9c0.3-3.1,1.5-5.6,3.4-7.3c2-1.8,4.9-2.7,8.9-2.7c4,0,6.9,0.8,8.8,2.5c1.9,1.7,2.9,3.9,2.9,6.5c0,3.2-1.3,5.4-4,6.7v0.1c3.3,1.3,5,3.8,5,7.4c0,2.7-1,5-3.1,6.7C377.6,183.8,374.4,184.7,370.1,184.7z"/>
<path d="M390.5,152.6h5.7v24.6h0.1l13.8-24.6h7.6v31.6H412v-24.6h-0.1l-13.8,24.6h-7.6V152.6z"/>
<path d="M445.4,152.6h5.7v24.6h0.1l13.8-24.6h7.6v31.6h-5.7v-24.6h-0.1L453,184.2h-7.6V152.6z"/>
<path d="M500.4,152.6h12.3c4.1,0,7.1,0.8,8.9,2.4c1.8,1.6,2.7,3.7,2.7,6.4c0,1.3-0.3,2.6-1,3.6c-0.7,1.1-1.6,2-2.9,2.7v0.1c1.6,0.7,2.9,1.6,3.8,2.9c0.9,1.2,1.4,2.7,1.4,4.3c0,2.9-0.9,5.1-2.7,6.7c-1.8,1.6-4.8,2.4-8.9,2.4h-13.6V152.6z M518.4,161.7c0-1.2-0.4-2.2-1.3-2.9c-0.9-0.7-2.5-1-4.8-1h-6.3v7.9h6.3c2.3,0,3.9-0.3,4.8-1C518,163.9,518.4,162.9,518.4,161.7z M519.7,174.6c0-1.4-0.4-2.4-1.3-3.1c-0.9-0.7-2.5-1.1-4.7-1.1h-7.6v8.6h7.6c2.3,0,3.9-0.4,4.7-1.1C519.3,177.1,519.7,176,519.7,174.6z"/>
<path d="M546.5,184.7c-4.5,0-8.1-1.3-10.6-4c-2.6-2.7-3.9-6.5-3.9-11.4v-1.8c0-4.9,1.3-8.7,3.9-11.4c2.6-2.7,6.1-4,10.6-4c4.5,0,8.1,1.3,10.6,4c2.6,2.7,3.9,6.5,3.9,11.4v1.8c0,4.9-1.3,8.7-3.9,11.4C554.5,183.3,550.9,184.7,546.5,184.7z M546.5,179.5c2.7,0,4.7-0.8,6.3-2.5c1.5-1.7,2.3-4.2,2.3-7.7v-1.8c0-3.5-0.8-6-2.3-7.7c-1.5-1.7-3.6-2.5-6.3-2.5s-4.7,0.8-6.3,2.5c-1.5,1.7-2.3,4.2-2.3,7.7v1.8c0,3.5,0.8,6,2.3,7.7C541.7,178.6,543.8,179.5,546.5,179.5z"/>
<path d="M568.8,152.6h25.9v31.6H589v-26.4h-14.5v26.4h-5.7V152.6z"/>
<path d="M604,152.6h4.4l0.6,4.4h0.1c1.5-1.8,3-3,4.6-3.8c1.6-0.8,3.6-1.1,5.8-1.1c1.9,0,3.6,0.3,5.2,1c1.6,0.7,2.9,1.6,4,2.9c1.1,1.3,2,2.9,2.6,4.8c0.6,1.9,0.9,4.2,0.9,6.7v1.8c0,2.5-0.3,4.7-0.9,6.7c-0.6,1.9-1.5,3.5-2.7,4.8c-1.1,1.3-2.5,2.3-4,2.9c-1.6,0.7-3.3,1-5.1,1c-2.1,0-4-0.3-5.5-1c-1.5-0.7-3-1.8-4.3-3.3h-0.1v16.4H604V152.6z M618.1,179.5c2.6,0,4.6-0.8,6.1-2.5c1.5-1.7,2.3-4.2,2.3-7.7v-1.8c0-3.4-0.8-6-2.3-7.7c-1.5-1.7-3.6-2.6-6.1-2.6c-2.6,0-4.6,0.8-6.1,2.5c-1.5,1.7-2.3,4.2-2.3,7.7v1.8c0,3.4,0.8,6,2.3,7.7C613.6,178.6,615.6,179.5,618.1,179.5z"/>
<path d="M653.4,184.7c-4.5,0-8.1-1.3-10.6-4c-2.6-2.7-3.9-6.5-3.9-11.4v-1.8c0-4.9,1.3-8.7,3.9-11.4c2.6-2.7,6.1-4,10.6-4c4.5,0,8.1,1.3,10.6,4c2.6,2.7,3.9,6.5,3.9,11.4v1.8c0,4.9-1.3,8.7-3.9,11.4C661.4,183.3,657.9,184.7,653.4,184.7z M653.4,179.5c2.7,0,4.7-0.8,6.3-2.5c1.5-1.7,2.3-4.2,2.3-7.7v-1.8c0-3.5-0.8-6-2.3-7.7c-1.5-1.7-3.6-2.5-6.3-2.5s-4.7,0.8-6.3,2.5c-1.5,1.7-2.3,4.2-2.3,7.7v1.8c0,3.5,0.8,6,2.3,7.7C648.7,178.6,650.8,179.5,653.4,179.5z"/>
<path d="M688.2,184.7c-4.3,0-7.6-1.3-10.1-4c-2.5-2.7-3.8-6.6-3.8-11.7v-1.8c0-2.4,0.3-4.5,1-6.4c0.7-1.9,1.6-3.4,2.8-4.7c1.2-1.3,2.7-2.3,4.4-3c1.7-0.7,3.6-1,5.7-1c2,0,3.7,0.3,5.3,0.8c1.5,0.5,2.9,1.2,3.9,2.1c1.1,0.9,2,1.9,2.7,3.2c0.7,1.2,1.1,2.5,1.4,3.9h-5.9c-0.5-1.3-1.3-2.5-2.4-3.4c-1.1-0.9-2.7-1.4-4.6-1.4c-2.5,0-4.5,0.8-6,2.4c-1.5,1.6-2.2,4.1-2.2,7.5v1.8c0,3.7,0.7,6.3,2.2,8c1.5,1.7,3.5,2.5,6,2.5c2,0,3.5-0.5,4.6-1.5c1.1-1,1.9-2.3,2.4-3.9h5.9c-0.3,1.6-0.7,3-1.4,4.3c-0.7,1.3-1.6,2.4-2.7,3.3c-1.1,0.9-2.4,1.7-3.9,2.2C692,184.4,690.2,184.7,688.2,184.7z"/>
<path d="M718.1,184.7c-3.6,0-6.3-0.8-8.1-2.5c-1.8-1.7-2.7-4-2.7-6.9c0-3.2,1.1-5.7,3.2-7.5c2.1-1.8,5.6-2.7,10.4-2.7h7.3v-1.7c0-2.1-0.5-3.6-1.6-4.6c-1.1-1-2.9-1.5-5.3-1.5c-2.3,0-3.9,0.4-5,1.2c-1.1,0.8-1.7,1.8-1.8,3h-5.8c0.1-1.3,0.4-2.5,1-3.7c0.6-1.1,1.4-2.1,2.4-3c1.1-0.8,2.3-1.5,3.9-2c1.5-0.5,3.3-0.7,5.3-0.7c4.3,0,7.5,1,9.6,2.9c2,1.9,3.1,4.8,3.1,8.7v20.5h-4.4l-0.7-4.7h-0.1C726,182.9,722.5,184.7,718.1,184.7z M718.7,179.5c1.3,0,2.5-0.2,3.7-0.7c1.2-0.4,2.2-1.1,3-1.8c0.9-0.8,1.5-1.7,2-2.7c0.5-1,0.7-2.2,0.7-3.3v-1.1h-6.9c-2.9,0-5,0.5-6.2,1.5c-1.2,1-1.8,2.3-1.8,3.9c0,1.3,0.5,2.3,1.4,3.1C715.5,179.1,716.9,179.5,718.7,179.5z"/>
<path d="M743,152.6h8.5l8.4,18h0.1l8.4-18h8.1v31.6h-5.7v-24.6h-0.1l-8.1,17.4h-5.7l-8.1-17.4h-0.1v24.6H743V152.6z"/>
<path d="M816.9,184.7c-4.5,0-8.1-1.3-10.6-4c-2.6-2.7-3.9-6.5-3.9-11.4v-1.8c0-4.9,1.3-8.7,3.9-11.4c2.6-2.7,6.1-4,10.6-4c4.5,0,8.1,1.3,10.6,4c2.6,2.7,3.9,6.5,3.9,11.4v1.8c0,4.9-1.3,8.7-3.9,11.4C824.9,183.3,821.4,184.7,816.9,184.7z M816.9,179.5c2.7,0,4.7-0.8,6.3-2.5c1.5-1.7,2.3-4.2,2.3-7.7v-1.8c0-3.5-0.8-6-2.3-7.7c-1.5-1.7-3.6-2.5-6.3-2.5s-4.7,0.8-6.3,2.5c-1.5,1.7-2.3,4.2-2.3,7.7v1.8c0,3.5,0.8,6,2.3,7.7C812.2,178.6,814.3,179.5,816.9,179.5z"/>
<path d="M846.1,157.8H836v-5.2h25.9v5.2h-10.1v26.4h-5.7V157.8z"/>
<path d="M868.3,152.6h5.7v12.6h4.4l8.6-12.6h6.6l-10.7,15l11.9,16.6H888l-9.6-13.8H874v13.8h-5.7V152.6z"/>
<path d="M901.2,152.6h4.4l0.6,4.4h0.1c1.5-1.8,3-3,4.6-3.8c1.6-0.8,3.6-1.1,5.8-1.1c1.9,0,3.6,0.3,5.2,1c1.6,0.7,2.9,1.6,4,2.9c1.1,1.3,2,2.9,2.6,4.8c0.6,1.9,0.9,4.2,0.9,6.7v1.8c0,2.5-0.3,4.7-0.9,6.7c-0.6,1.9-1.5,3.5-2.7,4.8c-1.1,1.3-2.5,2.3-4,2.9c-1.6,0.7-3.3,1-5.1,1c-2.1,0-4-0.3-5.5-1c-1.5-0.7-3-1.8-4.3-3.3h-0.1v16.4h-5.7V152.6z M915.3,179.5c2.6,0,4.6-0.8,6.1-2.5c1.5-1.7,2.3-4.2,2.3-7.7v-1.8c0-3.4-0.8-6-2.3-7.7c-1.5-1.7-3.6-2.6-6.1-2.6c-2.6,0-4.6,0.8-6.1,2.5c-1.5,1.7-2.3,4.2-2.3,7.7v1.8c0,3.4,0.8,6,2.3,7.7C910.8,178.6,912.8,179.5,915.3,179.5z"/>
<path d="M937.5,152.6h5.7v10.1h6.3c4.3,0,7.5,0.9,9.6,2.8c2,1.9,3.1,4.5,3.1,7.9c0,3.3-1,5.9-3.1,7.9c-2.1,1.9-5.2,2.9-9.5,2.9h-12V152.6z M943.2,167.9V179h6c2.6,0,4.4-0.5,5.4-1.4c1.1-0.9,1.6-2.3,1.6-4.2c0-1.8-0.5-3.2-1.6-4.1c-1.1-0.9-2.9-1.4-5.4-1.4H943.2z M967.2,152.6h5.7v31.6h-5.7V152.6z"/>
<path d="M989.4,157.8h-10.1v-5.2h25.9v5.2h-10.1v26.4h-5.7V157.8z"/>
<path d="M1024.2,184.7c-4.5,0-8.1-1.3-10.6-4c-2.6-2.7-3.9-6.5-3.9-11.4v-1.8c0-4.9,1.3-8.7,3.9-11.4c2.6-2.7,6.1-4,10.6-4c4.5,0,8.1,1.3,10.6,4c2.6,2.7,3.9,6.5,3.9,11.4v1.8c0,4.9-1.3,8.7-3.9,11.4C1032.2,183.3,1028.7,184.7,1024.2,184.7z M1024.2,179.5c2.7,0,4.7-0.8,6.3-2.5c1.5-1.7,2.3-4.2,2.3-7.7v-1.8c0-3.5-0.8-6-2.3-7.7c-1.5-1.7-3.6-2.5-6.3-2.5c-2.7,0-4.7,0.8-6.3,2.5c-1.5,1.7-2.3,4.2-2.3,7.7v1.8c0,3.5,0.8,6,2.3,7.7C1019.5,178.6,1021.6,179.5,1024.2,179.5z"/>
<path d="M1046.6,152.6h21.2v5.2h-15.5v26.4h-5.7V152.6z"/>
<path d="M1086.8,184.7c-4.5,0-8.1-1.3-10.6-4c-2.6-2.7-3.9-6.5-3.9-11.4v-1.8c0-4.9,1.3-8.7,3.9-11.4c2.6-2.7,6.1-4,10.6-4c4.5,0,8.1,1.3,10.6,4c2.6,2.7,3.9,6.5,3.9,11.4v1.8c0,4.9-1.3,8.7-3.9,11.4C1094.8,183.3,1091.3,184.7,1086.8,184.7z M1086.8,179.5c2.7,0,4.7-0.8,6.3-2.5c1.5-1.7,2.3-4.2,2.3-7.7v-1.8c0-3.5-0.8-6-2.3-7.7c-1.5-1.7-3.6-2.5-6.3-2.5c-2.7,0-4.7,0.8-6.3,2.5c-1.5,1.7-2.3,4.2-2.3,7.7v1.8c0,3.5,0.8,6,2.3,7.7C1082.1,178.6,1084.2,179.5,1086.8,179.5z"/>
<path d="M271.6,259.6L258.7,228h6.2l9.7,24.6h0.1l9.2-24.6h5.8l-17.1,44.2h-5.8L271.6,259.6z"/>
<path d="M296.1,228H322v31.6h-5.7v-26.4h-14.5v26.4h-5.7V228z"/>
<path d="M331.3,228h4.4l0.6,4.4h0.1c1.5-1.8,3-3,4.6-3.8c1.6-0.8,3.6-1.1,5.8-1.1c1.9,0,3.6,0.3,5.2,1c1.6,0.7,2.9,1.6,4,2.9c1.1,1.3,2,2.9,2.6,4.8c0.6,1.9,0.9,4.2,0.9,6.7v1.8c0,2.5-0.3,4.7-0.9,6.7c-0.6,1.9-1.5,3.5-2.7,4.8c-1.1,1.3-2.5,2.3-4,2.9c-1.6,0.7-3.3,1-5.1,1c-2.1,0-4-0.3-5.5-1c-1.5-0.7-3-1.8-4.3-3.3H337v16.4h-5.7V228z M345.4,254.9c2.6,0,4.6-0.8,6.1-2.5c1.5-1.7,2.3-4.2,2.3-7.7v-1.8c0-3.4-0.8-6-2.3-7.7c-1.5-1.7-3.6-2.6-6.1-2.6c-2.6,0-4.6,0.8-6.1,2.5c-1.5,1.7-2.3,4.2-2.3,7.7v1.8c0,3.4,0.8,6,2.3,7.7C340.9,254,342.9,254.9,345.4,254.9z"/>
<path d="M376.6,260.1c-3.6,0-6.3-0.8-8.1-2.5c-1.8-1.7-2.7-4-2.7-6.9c0-3.2,1.1-5.7,3.2-7.5c2.1-1.8,5.6-2.7,10.4-2.7h7.3v-1.7c0-2.1-0.5-3.6-1.6-4.6c-1.1-1-2.9-1.5-5.3-1.5c-2.3,0-3.9,0.4-5,1.2c-1.1,0.8-1.7,1.8-1.8,3h-5.8c0.1-1.3,0.4-2.5,1-3.7c0.6-1.1,1.4-2.1,2.4-3c1.1-0.8,2.3-1.5,3.9-2c1.5-0.5,3.3-0.7,5.3-0.7c4.3,0,7.5,1,9.6,2.9c2,1.9,3.1,4.8,3.1,8.7v20.5H388l-0.7-4.7h-0.1C384.6,258.3,381.1,260.1,376.6,260.1z M377.3,254.9c1.3,0,2.5-0.2,3.7-0.7c1.2-0.4,2.2-1.1,3-1.8c0.9-0.8,1.5-1.7,2-2.7c0.5-1,0.7-2.2,0.7-3.3v-1.1h-6.9c-2.9,0-5,0.5-6.2,1.5c-1.2,1-1.8,2.3-1.8,3.9c0,1.3,0.5,2.3,1.4,3.1C374.1,254.5,375.4,254.9,377.3,254.9z"/>
<path d="M401.6,228h12.3c4.1,0,7.1,0.8,8.9,2.4c1.8,1.6,2.7,3.7,2.7,6.4c0,1.3-0.3,2.6-1,3.6c-0.7,1.1-1.6,2-2.9,2.7v0.1c1.6,0.7,2.9,1.6,3.8,2.9c0.9,1.2,1.4,2.7,1.4,4.3c0,2.9-0.9,5.1-2.7,6.7c-1.8,1.6-4.8,2.4-8.9,2.4h-13.6V228z M419.6,237.1c0-1.2-0.4-2.2-1.3-2.9c-0.9-0.7-2.5-1-4.8-1h-6.3v7.9h6.3c2.3,0,3.9-0.3,4.8-1C419.2,239.3,419.6,238.4,419.6,237.1z M420.9,250.1c0-1.4-0.4-2.4-1.3-3.1c-0.9-0.7-2.5-1.1-4.7-1.1h-7.6v8.6h7.6c2.3,0,3.9-0.4,4.7-1.1C420.5,252.5,420.9,251.5,420.9,250.1z"/>
<path d="M432.1,254.9h0.9c1.2,0,2.2-0.4,2.9-1.2c0.7-0.8,1.2-1.9,1.5-3.4c0.3-1.5,0.5-3.3,0.6-5.4c0.1-2.1,0.1-4.5,0.1-7.1V228h22.7v31.6h-5.7v-26.4h-11.4v4.6c0,2.9-0.1,5.7-0.2,8.4c-0.1,2.7-0.5,5.1-1.2,7.1c-0.7,2.1-1.7,3.7-3.2,4.9c-1.5,1.2-3.5,1.8-6.2,1.8h-0.9V254.9z"/>
<path d="M483.2,260.1c-2.2,0-4.2-0.3-6-1c-1.8-0.7-3.3-1.7-4.6-3c-1.3-1.3-2.2-2.9-2.9-4.8c-0.7-1.9-1-4.1-1-6.5v-1.8c0-2.4,0.3-4.6,1-6.5c0.7-1.9,1.6-3.5,2.9-4.8c1.2-1.3,2.7-2.3,4.5-3c1.7-0.7,3.7-1,5.8-1c2.1,0,4.1,0.3,5.8,1c1.7,0.7,3.2,1.7,4.5,3.1c1.2,1.4,2.2,3,2.9,4.9c0.7,1.9,1,4.2,1,6.7v2.3h-22.5c0.1,3,0.9,5.3,2.3,6.9c1.5,1.6,3.4,2.4,6,2.4c2,0,3.7-0.4,5-1.1c1.3-0.8,2.3-2,3-3.6h5.9c-0.8,3.3-2.3,5.8-4.6,7.4C489.8,259.2,486.8,260.1,483.2,260.1z M482.9,232.7c-2.4,0-4.3,0.7-5.7,2.1s-2.2,3.4-2.5,6.1h16.5C490.7,235.4,487.9,232.7,482.9,232.7z"/>
<path d="M504.8,228h5.7v12.9h15.8V228h5.7v31.6h-5.7v-13.5h-15.8v13.5h-5.7V228z"/>
<path d="M541.3,228h5.7v24.6h0.1l13.8-24.6h7.6v31.6h-5.7v-24.6h-0.1l-13.8,24.6h-7.6V228z"/>
<path d="M582.4,247.4c-2-0.8-3.5-2-4.4-3.5c-0.9-1.5-1.4-3.4-1.4-5.6c0-3.3,1-5.8,3.1-7.6c2.1-1.8,5.5-2.7,10.2-2.7h10.7v31.6h-5.7v-11h-5.1c-0.3,0-0.7,0-1,0c-0.3,0-0.7,0-1-0.1l-6.2,11.1h-6.3L582.4,247.4z M582.5,238.4c0,1.6,0.5,2.9,1.6,3.8c1.1,0.9,3.1,1.3,6,1.3h4.7v-10.2h-4.7c-2.9,0-5,0.4-6,1.3C583.1,235.3,582.5,236.6,582.5,238.4z"/>
<path d="M639,220.8h-14.1v-5.4H659v5.4h-14.1v38.8H639V220.8z"/>
<path d="M669,259.6L656.1,228h6.2l9.7,24.6h0.1l9.2-24.6h5.8L670,272.2h-5.8L669,259.6z"/>
<path d="M688.5,254.9h0.9c1.2,0,2.2-0.4,2.9-1.2c0.7-0.8,1.2-1.9,1.5-3.4c0.3-1.5,0.5-3.3,0.6-5.4c0.1-2.1,0.1-4.5,0.1-7.1V228h22.7v31.6h-5.7v-26.4h-11.4v4.6c0,2.9-0.1,5.7-0.2,8.4c-0.1,2.7-0.5,5.1-1.2,7.1c-0.7,2.1-1.7,3.7-3.2,4.9c-1.5,1.2-3.5,1.8-6.2,1.8h-0.9V254.9z"/>
<path d="M726.6,228h5.7v10.1h6.3c4.3,0,7.5,0.9,9.6,2.8c2,1.9,3.1,4.5,3.1,7.9c0,3.3-1,5.9-3.1,7.9c-2.1,1.9-5.2,2.9-9.5,2.9h-12V228z M732.3,243.3v11.1h6c2.6,0,4.4-0.5,5.4-1.4c1.1-0.9,1.6-2.3,1.6-4.2c0-1.8-0.5-3.2-1.6-4.1c-1.1-0.9-2.9-1.4-5.4-1.4H732.3z"/>
<path d="M770.9,260.1c-4.3,0-7.6-1.3-10.1-4c-2.5-2.7-3.8-6.6-3.8-11.7v-1.8c0-2.4,0.3-4.5,1-6.4c0.7-1.9,1.6-3.4,2.8-4.7c1.2-1.3,2.7-2.3,4.4-3c1.7-0.7,3.6-1,5.7-1c2,0,3.7,0.3,5.3,0.8c1.5,0.5,2.9,1.2,3.9,2.1c1.1,0.9,2,1.9,2.7,3.2c0.7,1.2,1.1,2.5,1.4,3.9h-5.9c-0.5-1.3-1.3-2.5-2.4-3.4c-1.1-0.9-2.7-1.4-4.6-1.4c-2.5,0-4.5,0.8-6,2.4c-1.5,1.6-2.2,4.1-2.2,7.5v1.8c0,3.7,0.7,6.3,2.2,8c1.5,1.7,3.5,2.5,6,2.5c2,0,3.5-0.5,4.6-1.5c1.1-1,1.9-2.3,2.4-3.9h5.9c-0.3,1.6-0.7,3-1.4,4.3c-0.7,1.3-1.6,2.4-2.7,3.3c-1.1,0.9-2.4,1.7-3.9,2.2C774.6,259.8,772.9,260.1,770.9,260.1z"/>
<path d="M791.1,228h5.7v12.6h4.4l8.6-12.6h6.6l-10.7,15l11.9,16.6h-6.8l-9.6-13.8h-4.4v13.8h-5.7V228z"/>
<path d="M834.9,260.1c-4.5,0-8.1-1.3-10.6-4c-2.6-2.7-3.9-6.5-3.9-11.4v-1.8c0-4.9,1.3-8.7,3.9-11.4c2.6-2.7,6.1-4,10.6-4c4.5,0,8.1,1.3,10.6,4c2.6,2.7,3.9,6.5,3.9,11.4v1.8c0,4.9-1.3,8.7-3.9,11.4C842.9,258.7,839.3,260.1,834.9,260.1z M834.9,254.9c2.7,0,4.7-0.8,6.3-2.5c1.5-1.7,2.3-4.2,2.3-7.7v-1.8c0-3.5-0.8-6-2.3-7.7c-1.5-1.7-3.6-2.5-6.3-2.5c-2.7,0-4.7,0.8-6.3,2.5c-1.5,1.7-2.3,4.2-2.3,7.7v1.8c0,3.5,0.8,6,2.3,7.7C830.1,254.1,832.2,254.9,834.9,254.9z"/>
<path d="M857.2,228h5.7v24.6h0.1l13.8-24.6h7.6v31.6h-5.7v-24.6h-0.1l-13.8,24.6h-7.6V228z M870.8,224.1c-2.8,0-4.9-0.8-6.5-2.3c-1.6-1.5-2.3-3.7-2.3-6.4h4.9c0,1.6,0.3,2.9,1,3.6c0.7,0.8,1.7,1.2,2.9,1.2c1.2,0,2.2-0.4,2.9-1.2c0.7-0.8,1-2,1-3.6h4.9c0,2.7-0.8,4.9-2.3,6.4C875.7,223.3,873.6,224.1,870.8,224.1z"/>
<path d="M924.8,260.1c-4.5,0-8.1-1.3-10.6-4c-2.6-2.7-3.9-6.5-3.9-11.4v-1.8c0-4.9,1.3-8.7,3.9-11.4c2.6-2.7,6.1-4,10.6-4c4.5,0,8.1,1.3,10.6,4c2.6,2.7,3.9,6.5,3.9,11.4v1.8c0,4.9-1.3,8.7-3.9,11.4C932.8,258.7,929.2,260.1,924.8,260.1z M924.8,254.9c2.7,0,4.7-0.8,6.3-2.5c1.5-1.7,2.3-4.2,2.3-7.7v-1.8c0-3.5-0.8-6-2.3-7.7c-1.5-1.7-3.6-2.5-6.3-2.5c-2.7,0-4.7,0.8-6.3,2.5c-1.5,1.7-2.3,4.2-2.3,7.7v1.8c0,3.5,0.8,6,2.3,7.7C920,254.1,922.1,254.9,924.8,254.9z"/>
<path d="M960.5,260.1c-4.5,0-8.1-1.4-10.6-4.3c-2.6-2.9-3.9-7.3-3.9-13.3v-3c0-2.3,0.1-4.5,0.3-6.7c0.2-2.1,0.6-4.1,1.2-5.9c0.6-1.8,1.4-3.4,2.4-4.8c1-1.4,2.2-2.6,3.8-3.4c1.3-0.8,2.7-1.3,4-1.6c1.3-0.3,2.7-0.4,4.2-0.5c1.5-0.1,3.1-0.2,4.8-0.4c1.7-0.2,3.6-0.6,5.8-1.2v5.2c-1.6,0.6-3.1,1-4.6,1.1c-1.5,0.1-2.9,0.3-4.3,0.3c-1.4,0.1-2.7,0.2-3.9,0.4c-1.2,0.2-2.3,0.6-3.3,1.2c-1.3,0.9-2.4,2.2-3.3,3.9c-0.9,1.7-1.5,3.7-1.8,6.1h0.1c1.1-1.6,2.5-2.8,4.3-3.6c1.8-0.9,3.8-1.3,6-1.3c2,0,3.9,0.3,5.5,1c1.7,0.7,3.1,1.7,4.2,2.9c1.2,1.3,2.1,2.9,2.7,4.7c0.7,1.9,1,4,1,6.4v1.8c0,4.8-1.3,8.5-3.9,11.1C968.5,258.8,965,260.1,960.5,260.1z M960.5,254.9c2.7,0,4.7-0.8,6.3-2.5c1.5-1.6,2.3-4.1,2.3-7.5v-1.8c0-3.3-0.8-5.8-2.3-7.4c-1.6-1.7-3.6-2.5-6.3-2.5c-2.7,0-4.7,0.8-6.3,2.5c-1.5,1.6-2.3,4-2.3,7.2v1.8c0,3.4,0.8,6,2.4,7.6C955.8,254.1,957.9,254.9,960.5,254.9z"/>
<path d="M979.4,254.9h0.9c1.2,0,2.2-0.4,2.9-1.2c0.7-0.8,1.2-1.9,1.5-3.4c0.3-1.5,0.5-3.3,0.6-5.4c0.1-2.1,0.1-4.5,0.1-7.1V228h22.7v31.6h-5.7v-26.4h-11.4v4.6c0,2.9-0.1,5.7-0.2,8.4c-0.1,2.7-0.5,5.1-1.2,7.1c-0.7,2.1-1.7,3.7-3.2,4.9c-1.5,1.2-3.5,1.8-6.2,1.8h-0.9V254.9z"/>
<path d="M1026.3,260.1c-3.6,0-6.3-0.8-8.1-2.5c-1.8-1.7-2.7-4-2.7-6.9c0-3.2,1.1-5.7,3.2-7.5c2.1-1.8,5.6-2.7,10.4-2.7h7.3v-1.7c0-2.1-0.5-3.6-1.6-4.6c-1.1-1-2.9-1.5-5.3-1.5c-2.3,0-3.9,0.4-5,1.2c-1.1,0.8-1.7,1.8-1.8,3h-5.8c0.1-1.3,0.4-2.5,1-3.7c0.6-1.1,1.4-2.1,2.4-3c1.1-0.8,2.3-1.5,3.9-2c1.5-0.5,3.3-0.7,5.3-0.7c4.3,0,7.5,1,9.6,2.9c2,1.9,3.1,4.8,3.1,8.7v20.5h-4.4l-0.7-4.7h-0.1C1034.3,258.3,1030.8,260.1,1026.3,260.1z M1027,254.9c1.3,0,2.5-0.2,3.7-0.7c1.2-0.4,2.2-1.1,3-1.8c0.9-0.8,1.5-1.7,2-2.7c0.5-1,0.7-2.2,0.7-3.3v-1.1h-6.9c-2.9,0-5,0.5-6.2,1.5c-1.2,1-1.8,2.3-1.8,3.9c0,1.3,0.5,2.3,1.4,3.1C1023.8,254.5,1025.2,254.9,1027,254.9z"/>
<path d="M1063.5,260.1c-4.3,0-7.6-1.3-10.1-4c-2.5-2.7-3.8-6.6-3.8-11.7v-1.8c0-2.4,0.3-4.5,1-6.4c0.7-1.9,1.6-3.4,2.8-4.7c1.2-1.3,2.7-2.3,4.4-3c1.7-0.7,3.6-1,5.7-1c2,0,3.7,0.3,5.3,0.8c1.5,0.5,2.9,1.2,3.9,2.1c1.1,0.9,2,1.9,2.7,3.2c0.7,1.2,1.1,2.5,1.4,3.9h-5.9c-0.5-1.3-1.3-2.5-2.4-3.4c-1.1-0.9-2.7-1.4-4.6-1.4c-2.5,0-4.5,0.8-6,2.4c-1.5,1.6-2.2,4.1-2.2,7.5v1.8c0,3.7,0.7,6.3,2.2,8c1.5,1.7,3.5,2.5,6,2.5c2,0,3.5-0.5,4.6-1.5c1.1-1,1.9-2.3,2.4-3.9h5.9c-0.3,1.6-0.7,3-1.4,4.3c-0.7,1.3-1.6,2.4-2.7,3.3c-1.1,0.9-2.4,1.7-3.9,2.2C1067.2,259.8,1065.5,260.1,1063.5,260.1z"/>
<path d="M1091.4,233.2h-10.1V228h25.9v5.2h-10.1v26.4h-5.7V233.2z"/>
<path d="M1113.6,228h5.7v24.6h0.1l13.8-24.6h7.6v31.6h-5.7v-24.6h-0.1l-13.8,24.6h-7.6V228z"/>
</g>
</svg>